<mxfile host="app.diagrams.net" modified="2020-09-21T04:38:06.666Z" agent="5.0 (Windows NT 10.0; Win64; x64) AppleWebKit/537.36 (KHTML, like Gecko) Chrome/85.0.4183.102 Safari/537.36" etag="_nPuchKtqBdzCZd20Kla" version="13.7.3" type="github">
  <diagram id="1eHoDrfGln59MMewPON5" name="Page-1">
    <mxGraphModel dx="1422" dy="745" grid="1" gridSize="10" guides="1" tooltips="1" connect="1" arrows="1" fold="1" page="1" pageScale="1" pageWidth="850" pageHeight="1100" math="0" shadow="0">
      <root>
        <mxCell id="0" />
        <mxCell id="1" parent="0" />
        <mxCell id="dEPYbti22_l1IMyIBLxl-23" value="" style="group" vertex="1" connectable="0" parent="1">
          <mxGeometry x="360" y="550" width="130" height="70" as="geometry" />
        </mxCell>
        <mxCell id="dEPYbti22_l1IMyIBLxl-22" value="" style="group" vertex="1" connectable="0" parent="dEPYbti22_l1IMyIBLxl-23">
          <mxGeometry width="130" height="70" as="geometry" />
        </mxCell>
        <mxCell id="dEPYbti22_l1IMyIBLxl-14" value="" style="group;container=1;" vertex="1" connectable="0" parent="dEPYbti22_l1IMyIBLxl-22">
          <mxGeometry width="130" height="70" as="geometry" />
        </mxCell>
        <mxCell id="dEPYbti22_l1IMyIBLxl-13" value="" style="group;container=1;" vertex="1" connectable="0" parent="dEPYbti22_l1IMyIBLxl-14">
          <mxGeometry width="130" height="70" as="geometry" />
        </mxCell>
        <mxCell id="dEPYbti22_l1IMyIBLxl-11" style="edgeStyle=orthogonalEdgeStyle;rounded=0;orthogonalLoop=1;jettySize=auto;html=1;exitX=0.5;exitY=1;exitDx=0;exitDy=0;" edge="1" parent="1">
          <mxGeometry relative="1" as="geometry">
            <mxPoint x="405" y="550" as="sourcePoint" />
            <mxPoint x="405" y="550" as="targetPoint" />
          </mxGeometry>
        </mxCell>
        <mxCell id="dEPYbti22_l1IMyIBLxl-26" value="Newsletter Rendering Service" style="rounded=1;whiteSpace=wrap;html=1;" vertex="1" parent="1">
          <mxGeometry x="110" y="620" width="140" height="70" as="geometry" />
        </mxCell>
        <mxCell id="dEPYbti22_l1IMyIBLxl-31" style="edgeStyle=orthogonalEdgeStyle;rounded=0;orthogonalLoop=1;jettySize=auto;html=1;exitX=0;exitY=0.5;exitDx=0;exitDy=0;entryX=1;entryY=0.5;entryDx=0;entryDy=0;" edge="1" parent="1" source="dEPYbti22_l1IMyIBLxl-27" target="dEPYbti22_l1IMyIBLxl-26">
          <mxGeometry relative="1" as="geometry" />
        </mxCell>
        <mxCell id="dEPYbti22_l1IMyIBLxl-32" style="edgeStyle=orthogonalEdgeStyle;rounded=0;orthogonalLoop=1;jettySize=auto;html=1;exitX=0.5;exitY=1;exitDx=0;exitDy=0;entryX=0.5;entryY=0;entryDx=0;entryDy=0;" edge="1" parent="1" source="dEPYbti22_l1IMyIBLxl-27" target="dEPYbti22_l1IMyIBLxl-28">
          <mxGeometry relative="1" as="geometry" />
        </mxCell>
        <mxCell id="dEPYbti22_l1IMyIBLxl-33" style="edgeStyle=orthogonalEdgeStyle;rounded=0;orthogonalLoop=1;jettySize=auto;html=1;exitX=0.5;exitY=0;exitDx=0;exitDy=0;entryX=0.5;entryY=1;entryDx=0;entryDy=0;" edge="1" parent="1" source="dEPYbti22_l1IMyIBLxl-27" target="dEPYbti22_l1IMyIBLxl-29">
          <mxGeometry relative="1" as="geometry">
            <Array as="points">
              <mxPoint x="410" y="620" />
              <mxPoint x="410" y="520" />
              <mxPoint x="340" y="520" />
            </Array>
          </mxGeometry>
        </mxCell>
        <mxCell id="dEPYbti22_l1IMyIBLxl-34" style="edgeStyle=orthogonalEdgeStyle;rounded=0;orthogonalLoop=1;jettySize=auto;html=1;exitX=0.75;exitY=0;exitDx=0;exitDy=0;entryX=0.5;entryY=1;entryDx=0;entryDy=0;" edge="1" parent="1" source="dEPYbti22_l1IMyIBLxl-27" target="dEPYbti22_l1IMyIBLxl-30">
          <mxGeometry relative="1" as="geometry">
            <Array as="points">
              <mxPoint x="470" y="520" />
              <mxPoint x="540" y="520" />
            </Array>
          </mxGeometry>
        </mxCell>
        <mxCell id="dEPYbti22_l1IMyIBLxl-27" value="Subscription Cron Service" style="rounded=1;whiteSpace=wrap;html=1;" vertex="1" parent="1">
          <mxGeometry x="380" y="620" width="120" height="60" as="geometry" />
        </mxCell>
        <mxCell id="dEPYbti22_l1IMyIBLxl-28" value="User Management Service" style="rounded=1;whiteSpace=wrap;html=1;" vertex="1" parent="1">
          <mxGeometry x="380" y="820" width="120" height="60" as="geometry" />
        </mxCell>
        <mxCell id="dEPYbti22_l1IMyIBLxl-29" value="Slack Delivery Service" style="rounded=1;whiteSpace=wrap;html=1;" vertex="1" parent="1">
          <mxGeometry x="280" y="370" width="120" height="60" as="geometry" />
        </mxCell>
        <mxCell id="dEPYbti22_l1IMyIBLxl-30" value="Email Delivery Service" style="rounded=1;whiteSpace=wrap;html=1;" vertex="1" parent="1">
          <mxGeometry x="480" y="370" width="120" height="60" as="geometry" />
        </mxCell>
        <mxCell id="dEPYbti22_l1IMyIBLxl-35" value="Get HTML for newsletter for user" style="text;html=1;strokeColor=none;fillColor=none;align=center;verticalAlign=middle;whiteSpace=wrap;rounded=0;" vertex="1" parent="1">
          <mxGeometry x="260" y="600" width="110" height="40" as="geometry" />
        </mxCell>
        <mxCell id="dEPYbti22_l1IMyIBLxl-36" value="Get users to notify and their favorite subreddits" style="text;html=1;strokeColor=none;fillColor=none;align=center;verticalAlign=middle;whiteSpace=wrap;rounded=0;" vertex="1" parent="1">
          <mxGeometry x="450" y="740" width="160" height="20" as="geometry" />
        </mxCell>
        <mxCell id="dEPYbti22_l1IMyIBLxl-38" value="Send to email if user has enabled" style="text;html=1;strokeColor=none;fillColor=none;align=center;verticalAlign=middle;whiteSpace=wrap;rounded=0;" vertex="1" parent="1">
          <mxGeometry x="470" y="520" width="230" height="20" as="geometry" />
        </mxCell>
        <mxCell id="dEPYbti22_l1IMyIBLxl-39" value="Send to Slack if user has enabled" style="text;html=1;strokeColor=none;fillColor=none;align=center;verticalAlign=middle;whiteSpace=wrap;rounded=0;" vertex="1" parent="1">
          <mxGeometry x="210" y="520" width="200" height="20" as="geometry" />
        </mxCell>
      </root>
    </mxGraphModel>
  </diagram>
</mxfile>
